<?xml version="1.0" standalone="no"?>
<!DOCTYPE svg PUBLIC "-//W3C//DTD SVG 20010904//EN"
 "http://www.w3.org/TR/2001/REC-SVG-20010904/DTD/svg10.dtd">
<svg version="1.0" xmlns="http://www.w3.org/2000/svg"
 width="400.000000pt" height="400.000000pt" viewBox="0 0 400.000000 400.000000"
 preserveAspectRatio="xMidYMid meet">
<metadata>
Created by potrace 1.11, written by Peter Selinger 2001-2013
</metadata>
<g transform="translate(0.000000,400.000000) scale(0.100000,-0.100000)"
fill="#000000" stroke="none">
<path d="M1815 3438 c-143 -25 -289 -66 -385 -110 -327 -147 -598 -418 -739
-738 -34 -77 -87 -239 -97 -294 -10 -60 -11 -62 -53 -58 -37 4 -38 5 -31 30
14 54 -32 111 -79 98 -9 -3 -33 -7 -53 -10 -41 -6 -123 -24 -151 -32 -21 -7
-47 -61 -47 -98 0 -14 5 -37 12 -53 6 -15 10 -32 9 -38 -3 -9 -35 -170 -47
-235 -3 -14 -9 -41 -13 -60 -22 -98 19 -175 104 -199 38 -10 88 0 140 27 17 9
59 18 95 19 36 2 78 4 94 6 27 2 30 -1 33 -33 3 -32 -1 -38 -47 -69 -106 -71
-219 -200 -293 -332 -29 -54 -34 -74 -24 -110 12 -46 86 -57 132 -19 27 23
133 51 195 52 73 1 112 -14 173 -68 42 -38 76 -43 101 -15 17 18 21 15 139
-103 161 -161 315 -264 507 -339 69 -27 196 -63 256 -73 20 -3 46 -8 58 -11
11 -2 91 -6 176 -8 141 -3 203 2 344 29 50 9 181 49 191 58 5 4 15 8 23 8 22
0 204 94 273 141 164 111 305 251 405 405 128 196 205 401 229 614 10 83 13
89 63 112 124 57 241 149 298 235 107 161 87 345 -47 435 -53 35 -116 45 -173
26 l-44 -15 -6 42 c-9 66 -25 93 -73 116 -49 24 -106 20 -160 -11 -39 -23 -41
-21 -119 89 -77 110 -218 250 -333 331 -192 136 -399 219 -631 254 -102 16
-323 17 -405 4z m390 -39 c16 -4 48 -10 70 -13 22 -3 70 -14 108 -25 307 -89
568 -269 754 -521 53 -72 60 -86 45 -92 -32 -13 -40 -8 -83 49 -158 210 -352
359 -604 464 -160 68 -474 105 -653 79 -100 -15 -114 -18 -208 -45 -220 -64
-408 -177 -575 -346 -173 -175 -301 -400 -353 -622 -6 -27 -15 -48 -21 -49 -5
0 -21 -4 -33 -9 -23 -9 -24 -8 -17 33 10 63 68 232 107 313 132 272 370 515
636 649 121 61 294 115 417 132 28 3 52 8 53 9 8 7 328 2 357 -6z m-80 -223
c39 -3 85 -10 103 -15 18 -5 35 -10 37 -10 95 -9 317 -109 430 -193 71 -53
198 -176 235 -228 l20 -28 -28 -5 c-15 -3 -44 -17 -64 -31 l-38 -25 0 35 c0
77 -57 144 -123 144 -60 0 -120 -45 -140 -104 -1 -4 -23 6 -49 23 -95 64 -205
110 -328 136 -95 21 -293 14 -395 -13 -240 -65 -436 -224 -566 -458 -11 -20
-31 -34 -68 -47 -34 -12 -71 -36 -103 -67 l-51 -49 -19 24 c-11 14 -39 31 -63
38 l-44 12 28 80 c151 429 547 743 987 780 43 4 80 8 81 9 3 2 71 -1 158 -8z
m-51 -364 c17 -28 -6 -37 -89 -38 -81 -1 -85 0 -85 20 0 20 5 22 84 25 47 1
87 -2 90 -7z m234 -48 c28 -11 32 -16 23 -33 -10 -18 -12 -18 -76 5 -36 13
-67 24 -70 24 -3 0 -9 0 -14 0 -5 0 -8 8 -6 18 2 9 4 20 4 24 1 7 85 -15 139
-38z m-494 9 c7 -17 -9 -33 -31 -33 -7 0 -37 -11 -68 -24 -54 -24 -55 -25 -65
-5 -10 17 -6 22 37 40 26 11 57 24 68 29 32 14 52 11 59 -7z m916 -43 c36 -36
19 -92 -32 -105 -57 -14 -94 76 -46 109 30 21 54 20 78 -4z m717 -36 c23 -23
25 -30 19 -78 -4 -28 -15 -84 -25 -123 -11 -45 -14 -78 -9 -87 16 -29 63 6 93
69 27 58 71 95 112 95 39 0 99 -30 122 -61 118 -159 4 -372 -272 -508 -73 -35
-233 -94 -291 -105 -12 -3 -64 -14 -116 -25 -52 -11 -115 -23 -140 -26 -40 -6
-194 -29 -260 -40 -39 -6 -241 -36 -276 -41 -17 -2 -76 -11 -130 -20 -55 -9
-108 -18 -119 -19 -26 -4 -93 -15 -123 -20 -12 -2 -30 -6 -40 -9 -9 -3 -35 -7
-56 -11 -112 -16 -366 -82 -516 -133 -239 -81 -407 -177 -538 -309 l-83 -83
-41 34 c-39 34 -98 54 -169 60 -52 4 -160 -20 -219 -48 -29 -14 -55 -24 -57
-22 -2 2 8 26 23 52 64 118 177 240 294 319 91 61 255 139 366 175 113 36 473
108 624 125 30 3 82 10 115 15 54 8 85 11 220 25 22 2 74 6 115 10 41 3 95 8
120 10 25 2 88 7 140 10 189 12 335 25 450 40 19 2 60 7 90 10 30 4 62 8 70
10 8 2 33 7 55 10 41 5 68 10 115 20 14 3 43 7 65 10 86 10 253 59 320 92 115
58 178 114 221 195 41 80 28 178 -28 205 -69 33 -106 15 -143 -71 -31 -73 -64
-113 -111 -132 -77 -32 -117 -6 -115 76 0 28 5 58 10 68 4 9 11 33 14 52 18
100 18 100 2 106 -23 9 -62 -21 -67 -53 -5 -25 -33 -162 -42 -206 -3 -12 4
-21 20 -27 13 -5 24 -14 24 -19 0 -17 -31 -41 -53 -42 -12 0 -30 -2 -40 -4
-10 -2 -28 6 -39 17 -23 23 -22 41 12 200 23 110 22 145 -6 134 -11 -4 -14 0
-12 17 6 46 74 65 121 34 23 -15 27 -15 34 -2 11 18 81 55 106 55 10 0 29 -12
44 -26z m-954 -32 c43 -31 47 -36 33 -50 -13 -14 -21 -11 -70 23 -47 32 -54
40 -45 57 11 21 13 20 82 -30z m-919 1 c5 -11 -5 -26 -31 -47 -21 -17 -48 -41
-61 -54 -20 -19 -26 -21 -42 -9 -19 13 -18 15 13 43 48 46 98 84 107 84 4 0
11 -7 14 -17z m1552 -35 c-2 -13 -11 -57 -19 -98 -9 -41 -25 -127 -38 -190
-34 -177 -76 -257 -159 -300 -68 -35 -119 -28 -143 21 -17 36 -14 86 6 126 13
24 13 31 2 47 -13 18 -15 17 -41 -13 -45 -53 -108 -78 -152 -58 -39 18 -40 46
-7 207 23 114 23 123 0 135 -31 15 -19 43 25 56 91 27 116 -17 85 -151 -1 -3
-7 -38 -15 -78 -11 -62 -11 -75 0 -82 30 -19 76 35 85 101 21 152 97 256 205
282 14 3 32 2 40 -3 8 -5 19 -5 25 0 11 9 45 16 83 19 18 1 22 -3 18 -21z
m-738 -85 c9 -18 9 -42 -3 -79 -6 -18 -3 -20 28 -16 27 3 41 -2 68 -26 30 -27
33 -34 31 -85 -1 -79 -35 -150 -89 -192 -24 -19 -56 -36 -71 -39 -77 -16 -81
-15 -109 14 l-26 28 -19 -23 c-31 -40 -122 -78 -188 -79 -49 -1 -63 3 -84 23
-49 46 -55 131 -16 234 55 147 231 224 271 119 32 -83 -43 -195 -140 -208 -47
-6 -51 -9 -51 -33 0 -15 9 -37 20 -49 54 -58 179 5 216 108 32 88 88 131 117
90 26 -37 -2 -116 -50 -140 -15 -8 -29 -15 -31 -16 -1 -1 0 -9 4 -18 3 -9 16
-16 29 -16 59 0 107 86 109 192 1 50 -2 62 -19 74 -17 11 -25 11 -46 0 -59
-30 -91 32 -54 104 25 49 85 68 103 33z m-577 -39 c36 -34 52 -102 44 -190
-18 -220 -114 -345 -271 -358 -27 -2 -70 -7 -95 -11 l-46 -7 46 226 c45 216
48 227 81 261 19 19 30 35 26 35 -12 0 -66 -39 -103 -73 -43 -40 -58 -28 -31
27 17 36 32 49 78 71 120 58 223 65 271 19z m-427 -54 c-28 -46 -39 -57 -67
-64 -27 -6 -27 -6 -16 16 7 13 23 40 36 61 20 33 26 36 43 25 17 -11 18 -14 4
-38z m2280 -6 c27 -70 -38 -168 -159 -243 l-50 -30 -7 22 c-11 38 -9 44 22 57
45 19 97 78 130 148 29 61 52 77 64 46z m-2284 -127 c0 -2 -13 -65 -30 -140
-16 -76 -30 -149 -30 -162 0 -36 26 -32 66 10 18 19 35 35 38 35 18 0 -10 -78
-39 -106 -26 -26 -81 -54 -107 -54 -16 0 -37 9 -47 19 -19 19 -20 19 -38 -1
-56 -62 -143 -69 -173 -12 l-13 24 -24 -32 c-50 -69 -135 -97 -172 -57 -24 26
-23 69 5 187 24 107 13 140 -33 103 -16 -12 -27 -46 -46 -135 -14 -65 -23
-125 -20 -132 3 -8 14 -14 24 -14 38 0 10 -46 -36 -58 -87 -23 -106 12 -81
146 27 152 28 160 17 166 -5 3 -21 1 -35 -5 -24 -11 -29 -22 -41 -96 -3 -18
-12 -62 -20 -98 -17 -70 -14 -85 14 -85 14 0 17 -6 13 -25 -7 -41 -113 -58
-134 -21 -8 14 -15 12 -54 -20 -56 -46 -128 -58 -156 -27 -20 22 -28 77 -17
109 4 11 10 38 13 60 4 21 16 81 27 134 11 52 22 106 24 120 3 14 7 36 10 49
3 19 1 22 -15 18 -16 -4 -19 0 -18 19 2 24 8 28 68 38 14 3 46 9 73 14 45 9
47 9 47 -14 0 -15 -6 -24 -15 -24 -23 0 -31 -26 -74 -240 -45 -221 -43 -234
21 -198 43 24 62 53 72 108 8 45 12 66 24 116 9 42 2 69 -18 69 -5 0 -10 3
-10 8 0 4 0 13 0 20 0 33 96 49 124 22 14 -14 19 -13 47 15 25 24 41 30 74 30
24 0 48 -6 54 -14 10 -12 20 -8 64 21 41 27 58 33 82 29 61 -12 66 -44 35
-205 -16 -83 -18 -106 -8 -112 34 -21 76 42 102 156 19 82 56 146 109 188 30
25 48 31 90 32 28 1 59 5 67 8 33 12 100 22 100 14z m2014 -103 c13 -34 6 -62
-16 -67 -27 -7 -24 -11 -33 41 -6 40 -6 42 18 42 14 0 28 -7 31 -16z m-233
-25 c3 -5 6 -29 8 -52 l2 -44 -56 -10 c-40 -7 -54 -7 -51 1 3 6 15 37 28 68
19 49 26 56 43 51 11 -3 23 -10 26 -14z m236 -366 c-8 -67 -9 -75 -32 -163
-56 -224 -180 -446 -341 -612 -135 -140 -241 -217 -409 -298 -126 -61 -206
-88 -346 -117 -119 -25 -412 -25 -529 0 -288 60 -519 185 -727 393 -62 62
-113 119 -113 127 0 8 8 21 19 31 17 16 19 15 36 -11 32 -50 209 -217 285
-269 137 -94 370 -196 500 -218 165 -28 394 -29 525 -2 319 66 559 209 790
471 32 37 101 141 143 215 69 123 125 292 147 445 7 50 17 65 44 65 11 0 13
-12 8 -57z m-243 -40 c-12 -69 -74 -242 -111 -311 -147 -275 -390 -481 -675
-572 -210 -67 -448 -74 -663 -19 -89 22 -231 84 -321 140 -114 70 -323 271
-305 293 7 8 63 40 126 72 l114 58 73 -70 c121 -115 241 -183 390 -223 95 -26
134 -31 226 -31 72 -1 98 2 177 14 45 8 167 51 225 80 202 102 382 307 440
504 7 23 16 42 19 43 3 0 13 2 21 4 8 2 47 8 85 15 39 7 81 14 95 16 14 3 39
8 55 13 17 5 31 10 33 10 2 1 0 -16 -4 -36z m-374 -48 c0 -17 -52 -125 -60
-125 -3 0 -12 4 -20 10 -12 8 -12 14 4 47 28 59 45 83 61 83 8 0 15 -7 15 -15z
m-2080 -35 c0 -21 -34 -45 -50 -35 -6 3 -10 16 -10 28 0 17 6 22 30 24 24 2
30 -2 30 -17z m1913 -35 c22 -21 9 -54 -30 -77 -25 -15 -32 -25 -28 -39 5 -14
1 -19 -14 -19 -18 0 -20 4 -15 37 3 20 10 48 15 61 9 23 8 24 -7 11 -15 -12
-17 -12 -12 1 5 16 44 40 65 40 6 0 18 -7 26 -15z m-116 -13 c15 -10 18 -31
10 -75 -10 -45 -45 -72 -83 -63 -23 6 -25 11 -21 45 8 74 53 119 94 93z m-108
-21 c11 -7 12 -17 2 -57 -10 -38 -10 -49 1 -56 10 -6 10 -10 -2 -18 -22 -14
-35 -7 -38 24 -5 38 -27 27 -26 -12 2 -33 -2 -37 -24 -23 -8 5 -11 18 -7 37 4
16 8 45 10 64 3 44 30 49 30 6 1 -16 6 -31 12 -33 13 -5 25 39 17 61 -7 18 4
20 25 7z m-115 -26 c8 -22 -3 -45 -20 -38 -11 4 -12 8 -3 19 13 16 6 30 -10
19 -17 -10 -13 -33 8 -44 28 -15 34 -41 16 -68 -22 -32 -70 -29 -70 5 0 12 5
22 10 21 6 0 9 -9 8 -20 -3 -21 -2 -22 21 -13 23 9 19 29 -9 48 -29 19 -31 33
-9 64 17 25 49 29 58 7z m-102 -32 c5 -61 -9 -101 -42 -118 -53 -28 -75 2 -57
78 5 18 2 23 -13 24 -15 1 -21 -8 -27 -45 -4 -26 -7 -55 -5 -64 1 -12 -5 -18
-18 -18 -24 0 -24 9 -6 78 7 29 10 52 6 52 -16 0 -37 -37 -38 -68 -2 -18 -9
-44 -18 -57 -17 -25 -54 -39 -68 -25 -5 5 -18 3 -32 -7 -29 -19 -47 -8 -41 24
5 27 -10 27 -27 0 -8 -13 -8 -20 2 -26 11 -6 10 -10 -4 -15 -29 -11 -37 8 -25
61 7 27 11 56 9 64 -2 8 4 14 12 14 10 0 15 -10 15 -32 0 -18 3 -33 7 -33 12
0 23 24 23 49 1 27 22 40 30 19 3 -8 1 -34 -4 -59 -9 -42 -8 -59 5 -47 3 4 7
17 9 30 6 54 19 79 44 93 17 8 33 10 41 5 9 -5 22 -2 37 10 17 13 37 18 68 16
25 -1 45 1 45 6 0 4 16 8 35 8 26 0 35 -4 37 -17z m493 -33 c8 -13 -10 -41
-65 -99 -38 -41 -42 -43 -57 -28 -15 15 -12 21 38 76 54 59 72 70 84 51z
m-920 -50 c8 -25 -16 -66 -44 -75 -22 -7 -37 -35 -19 -35 9 0 9 -3 1 -11 -7
-7 -18 -9 -27 -6 -12 5 -13 13 -6 36 5 17 7 31 5 31 -3 0 0 11 5 25 8 20 7 23
-8 19 -12 -4 -10 1 7 15 31 28 77 28 86 1z m-257 -49 c30 -26 41 -42 36 -54
-3 -9 -10 -17 -16 -17 -15 0 -108 92 -102 101 11 18 40 7 82 -30z m986 -88 c7
-18 6 -19 -88 -71 l-60 -33 -8 22 c-8 22 3 38 27 39 6 0 30 14 55 30 53 34 66
36 74 13z m-789 -43 c39 -18 71 -34 73 -35 6 -5 -11 -35 -21 -35 -17 0 -147
62 -147 71 0 15 13 40 19 36 3 -1 38 -18 76 -37z m553 -71 c3 -17 -40 -32
-129 -44 -44 -6 -46 -5 -46 18 0 13 5 24 11 24 26 0 111 15 115 19 11 11 46
-2 49 -17z m-268 -3 c35 -3 50 -14 43 -32 -5 -13 -18 -15 -67 -11 -93 8 -115
15 -109 38 5 18 11 19 57 13 28 -4 62 -8 76 -8z"/>
<path d="M2945 2558 c-27 -23 -41 -49 -60 -109 -46 -148 -23 -222 49 -156 23
21 43 86 62 203 3 20 10 47 14 60 14 37 -24 38 -65 2z"/>
<path d="M2897 2211 c-15 -10 -39 -17 -53 -15 -21 2 -28 -4 -40 -33 -30 -70 0
-123 53 -93 27 15 65 81 77 133 7 31 2 32 -37 8z"/>
<path d="M2067 2416 c-33 -34 -77 -158 -60 -169 16 -10 58 18 72 48 22 46 30
103 16 121 -10 15 -13 15 -28 0z"/>
<path d="M1672 2491 c-8 -5 -26 -69 -42 -142 -57 -271 -70 -338 -70 -348 0
-11 45 -5 75 10 74 37 140 278 113 417 -4 25 -12 49 -16 53 -14 13 -47 18 -60
10z"/>
<path d="M1180 2220 c-53 -57 -97 -257 -60 -280 15 -9 58 9 77 32 6 7 21 60
33 118 35 170 35 160 5 160 -17 0 -37 -11 -55 -30z"/>
<path d="M2568 1630 c-3 -16 -1 -30 3 -30 12 0 31 39 24 50 -11 19 -23 10 -27
-20z"/>
<path d="M2464 1642 c-15 -10 -26 -41 -30 -84 -3 -40 5 -48 26 -23 27 33 31
125 4 107z"/>
<path d="M2111 1557 c-17 -31 -19 -89 -3 -95 15 -5 40 50 36 81 -1 12 -3 25
-3 30 -2 15 -18 6 -30 -16z"/>
<path d="M1910 1521 c-26 -49 -17 -122 12 -93 12 12 26 82 20 100 -6 18 -20
15 -32 -7z"/>
<path d="M1696 1491 c-4 -6 -5 -11 -2 -11 3 0 1 -11 -4 -25 -13 -34 7 -33 22
0 8 18 8 29 1 36 -8 8 -13 8 -17 0z"/>
</g>
</svg>
